<?xml version="1.0" standalone="no"?>
<!DOCTYPE svg PUBLIC "-//W3C//DTD SVG 20010904//EN"
 "http://www.w3.org/TR/2001/REC-SVG-20010904/DTD/svg10.dtd">
<svg version="1.0" xmlns="http://www.w3.org/2000/svg"
 width="225.000000pt" height="225.000000pt" viewBox="0 0 225.000000 225.000000"
 preserveAspectRatio="xMidYMid meet">
<metadata>
Created by potrace 1.16, written by Peter Selinger 2001-2019
</metadata>
<g transform="translate(0.000000,225.000000) scale(0.100000,-0.100000)"
fill="#000000" stroke="none">
<path d="M1079 1837 c-15 -7 -209 -165 -433 -352 -311 -259 -406 -343 -403
-357 3 -10 1 -16 -4 -12 -5 3 -9 -2 -9 -12 0 -23 78 -114 98 -114 10 0 190
144 400 320 211 176 388 320 393 320 5 0 182 -144 393 -320 211 -176 390 -320
398 -320 16 0 74 57 66 65 -2 3 -13 -4 -23 -15 -22 -25 -48 -26 -66 -2 -11 14
-11 15 1 5 20 -19 44 -16 65 7 9 10 22 18 28 17 12 -2 37 40 37 64 0 9 -56 63
-125 120 l-125 103 0 227 c0 125 -3 234 -6 243 -5 13 -27 16 -135 16 l-129 0
-10 -26 c-6 -14 -10 -67 -10 -118 0 -76 -3 -93 -15 -93 -8 0 -13 2 -11 5 7 6
-228 203 -267 225 -37 20 -71 21 -108 4z"/>
<path d="M808 1296 c-258 -213 -318 -267 -323 -291 -3 -16 -5 -151 -3 -298 3
-269 3 -269 27 -288 21 -17 42 -19 247 -19 l223 0 -2 225 c-1 124 0 221 1 215
2 -6 61 -10 148 -10 l144 0 0 -215 0 -215 218 0 c181 0 221 3 240 16 23 16 31
40 10 29 -7 -4 -4 1 7 10 19 15 20 28 20 298 l0 282 -305 253 c-168 139 -312
256 -320 261 -11 6 -99 -61 -332 -253z"/>
</g>
</svg>
